<svg xmlns="http://www.w3.org/2000/svg" xmlns:xlink="http://www.w3.org/1999/xlink" width="187.478" height="214.193" viewBox="0 0 187.478 214.193">
  <defs>
    <filter id="Path_1322" x="40.698" y="9.383" width="65.472" height="203.452" filterUnits="userSpaceOnUse">
      <feOffset dy="4" input="SourceAlpha"/>
      <feGaussianBlur stdDeviation="4" result="blur"/>
      <feFlood flood-opacity="0.161"/>
      <feComposite operator="in" in2="blur"/>
      <feComposite in="SourceGraphic"/>
    </filter>
  </defs>
  <g id="Group_609" data-name="Group 609" transform="translate(-219.543 -3074.449)">
    <g id="Group_608" data-name="Group 608">
      <path id="Path_864" data-name="Path 864" d="M0,0H132V209.5H0Z" transform="translate(225.945 3078)" fill="#284525"/>
      <g transform="matrix(1, 0, 0, 1, 219.54, 3074.45)" filter="url(#Path_1322)">
        <path id="Path_1322-2" data-name="Path 1322" d="M19.694,18.24a13.82,13.82,0,0,1,8.269,3.52,9.667,9.667,0,0,1,3.093,7.3,10.728,10.728,0,0,1-1.8,6.048,12.373,12.373,0,0,1-4.987,4.288,15.869,15.869,0,0,1-7.1,1.568q-1.83,0-4.229-.192-.821-.064-2.083-.128t-2.84-.064l-4.545.064q-1.2.064-3.282.064Q0,40.7,0,40.32t.189-.384a9.791,9.791,0,0,0,3.03-.352,2.321,2.321,0,0,0,1.42-1.248,7.181,7.181,0,0,0,.41-2.816V5.888A7.217,7.217,0,0,0,4.639,3.1a2.307,2.307,0,0,0-1.389-1.28,9.474,9.474,0,0,0-3-.352q-.126,0-.126-.384T.252.7L3.535.768Q6.312.9,8.016.9,9.784.9,11.74.7,12.435.64,13.413.576T15.654.512q5.618,0,8.584,2.176a7.173,7.173,0,0,1,2.967,6.144,8.675,8.675,0,0,1-1.957,5.536A12.89,12.89,0,0,1,19.694,18.24ZM14.581,1.792a3.562,3.562,0,0,0-2.746.832q-.726.832-.726,3.392v12.16l2.651.064a6.645,6.645,0,0,0,5.618-2.464,10.157,10.157,0,0,0,1.894-6.368,8.39,8.39,0,0,0-1.7-5.632A6.212,6.212,0,0,0,14.581,1.792Zm1.578,37.7q8.521,0,8.521-8.9a11.676,11.676,0,0,0-2.493-7.808Q19.694,19.84,14.9,19.84q-2.272,0-3.787.128V35.52a5.685,5.685,0,0,0,.379,2.3,2.472,2.472,0,0,0,1.452,1.248A9.417,9.417,0,0,0,16.159,39.488Zm37.367-4.224a7.855,7.855,0,0,0,.284,2.5,1.625,1.625,0,0,0,1.1,1.024,9.785,9.785,0,0,0,2.651.256h3.787a11.579,11.579,0,0,0,7.574-2.528,12.083,12.083,0,0,0,4.1-6.816q.063-.192.379-.16t.316.224q-.568,6.016-.568,9.984a1.139,1.139,0,0,1-.189.736.976.976,0,0,1-.757.224H42.67q-.126,0-.126-.384t.126-.384a10.973,10.973,0,0,0,3.124-.32,2,2,0,0,0,1.326-1.248,8.68,8.68,0,0,0,.347-2.848V5.888a8.377,8.377,0,0,0-.347-2.816,2.106,2.106,0,0,0-1.357-1.248,10.068,10.068,0,0,0-3.093-.352q-.126,0-.126-.384T42.67.7l3.219.064Q48.666.9,50.433.9,52.327.9,55.1.768L58.26.7q.189,0,.189.384t-.189.384a9.747,9.747,0,0,0-3.061.352A2.1,2.1,0,0,0,53.873,3.1a8.68,8.68,0,0,0-.347,2.848Zm50.686,6.208a19.7,19.7,0,0,1-10.446-2.784,18.96,18.96,0,0,1-7.07-7.552,22.1,22.1,0,0,1-2.493-10.4,19.241,19.241,0,0,1,3.282-11.3,20.635,20.635,0,0,1,8.427-7.072A24.893,24.893,0,0,1,106.421,0a19.432,19.432,0,0,1,10.541,2.848,19.2,19.2,0,0,1,6.975,7.52,21.2,21.2,0,0,1,2.43,9.92,19.821,19.821,0,0,1-3.03,10.688,21.892,21.892,0,0,1-8.111,7.68A22.353,22.353,0,0,1,104.212,41.472Zm2.146-1.536a11.621,11.621,0,0,0,6.785-2.08,13.866,13.866,0,0,0,4.734-6.112,24.175,24.175,0,0,0,1.736-9.6,27.5,27.5,0,0,0-1.925-10.56,16.7,16.7,0,0,0-5.491-7.3,13.728,13.728,0,0,0-8.363-2.624,11.236,11.236,0,0,0-9.5,4.448q-3.377,4.448-3.377,12.32A29.182,29.182,0,0,0,92.945,29.44a18.361,18.361,0,0,0,5.491,7.712A12.4,12.4,0,0,0,106.358,39.936Zm55.736,1.536a26.446,26.446,0,0,1-12.4-2.752,19.63,19.63,0,0,1-8.048-7.456A20.2,20.2,0,0,1,138.865,20.8a19.164,19.164,0,0,1,3.156-10.88,20.733,20.733,0,0,1,8.711-7.328A29.055,29.055,0,0,1,163.167,0a36.5,36.5,0,0,1,6.154.512,17.412,17.412,0,0,1,4.892,1.472,1.431,1.431,0,0,1,.663.448,3.808,3.808,0,0,1,.158,1.024l.821,8.448q0,.192-.347.256t-.41-.192a17.919,17.919,0,0,0-4.86-7.392,12.655,12.655,0,0,0-9.089-3.36,14.592,14.592,0,0,0-7.922,2.24,15.329,15.329,0,0,0-5.618,6.432,21.8,21.8,0,0,0-2.051,9.7A24.594,24.594,0,0,0,147.8,30.176a18.023,18.023,0,0,0,6.375,7.52,16.747,16.747,0,0,0,9.5,2.752,11.184,11.184,0,0,0,4.229-.64,4.076,4.076,0,0,0,2.209-2.3,13.184,13.184,0,0,0,.694-4.864,19.183,19.183,0,0,0-.379-4.64,2.5,2.5,0,0,0-1.673-1.76,15.569,15.569,0,0,0-4.513-.448q-.379,0-.379-.512a.678.678,0,0,1,.095-.352.266.266,0,0,1,.221-.16q5.239.32,8.4.32t6.565-.192a.266.266,0,0,1,.221.16.579.579,0,0,1,.095.288q0,.448-.316.448a2.371,2.371,0,0,0-1.767.416,3.236,3.236,0,0,0-.663,1.952q-.158,1.472-.158,5.12a26.066,26.066,0,0,0,.221,4.1,12.072,12.072,0,0,1,.221,1.536.749.749,0,0,1-.126.512,1.435,1.435,0,0,1-.568.256A65.39,65.39,0,0,1,162.094,41.472Z" transform="translate(52.7 196.83) rotate(-90)" fill="#fff"/>
      </g>
    </g>
    <g id="Group_594" data-name="Group 594" transform="translate(205.945 10)">
      <g id="Group_593" data-name="Group 593" transform="translate(14.076 3065)">
        <path id="Path_852" data-name="Path 852" d="M25.918,1160.779s-16.5,5.889-25.5,4.957" transform="translate(22.924 -1058)" fill="none" stroke="#ced7c7" stroke-width="1"/>
        <path id="Path_853" data-name="Path 853" d="M45.375,1130.122s7.482,11.8,12.859,11.8S80.691,1170.979,78.2,1186.7s26.426,7.3,28.9,20.217" transform="translate(31.723 -1059)" fill="none" stroke="#d2d7c6" stroke-width="1" opacity="0.599"/>
        <path id="Path_859" data-name="Path 859" d="M72.564,1158.429s16.83,5.844,20.555-8.847,9.6-11.055,9.6-11.055" transform="translate(31.478 -1059)" fill="none" stroke="#ccd3c1" stroke-width="0.7" opacity="0.436"/>
        <path id="Path_860" data-name="Path 860" d="M89.843,1156.071s5.741,11.578,10.393,5.633" transform="translate(31.36 -1058)" fill="none" stroke="#ccd3c1" stroke-width="0.7"/>
        <path id="Path_1232" data-name="Path 1232" d="M146.032,1069.374s29.1,19.1,26.483,47.984,10.063,35.8,12.062,54.36,0,31.527,0,31.527L162.5,1171.719s-24.316,14.387-37.94,60.188-21.328,25.945-21.328,25.945-12.374-19-4.739-34.836c0,0-5.032,36.367-30.909,41.891,0,0-14.043-1.68-10.66-28.051,0,0-2.2,27.527-7.878,28.051s-10.155-21.395-10.155-21.395-2.029,24.223-39.369,21.395" transform="translate(0.924 -1052)" fill="none" stroke="#bcc4bb" stroke-width="1" opacity="0.762"/>
        <path id="Path_1244" data-name="Path 1244" d="M135.828,1173.707s5.164-17.242,12.7-28.6-3.637-25.3,0-38.648-5.77-19.924-5.77-19.924-22.154,20.706-29.9,19.924,7.963,14.076,7.963,14.076,3.619,6.936-5.523,8.762-5.242,6.283-5.242,6.283" transform="translate(-4.818 -1084)" fill="none" stroke="#dfe3d1" stroke-width="1" opacity="0.599"/>
        <path id="Path_1245" data-name="Path 1245" d="M147.787,1122.955s-18.27,20.254-30.07,22.711l-6.963,6.18-5.023,14.436" transform="translate(-3.733 -1085)" fill="none" stroke="#d1d4c8" stroke-width="0.7" opacity="0.599"/>
        <path id="Path_1233" data-name="Path 1233" d="M.076,1249.9l2.848-9.283v-10.645l4.816-7.18v-10.328l3.941-15.408,14.711-35.609h4.16l13.424-28.461,2.3-9.988,6.934-10.854,7.385-13.516L65.51,1085s-20.213,1.37-26.342,7.644-22.321,14.219-27.486,13.206a39.645,39.645,0,0,0-11.605,0" transform="translate(-0.076 -1085)" fill="none" stroke="#ccd4c4" stroke-width="1" opacity="0.605"/>
        <path id="Path_1236" data-name="Path 1236" d="M25.918,1160.779s-16.5,5.889-25.5,4.957" transform="translate(-0.076 -1085)" fill="none" stroke="#ced7c7" stroke-width="1"/>
        <path id="Path_1237" data-name="Path 1237" d="M45.375,1130.122s7.482,11.8,12.859,11.8S80.691,1170.979,78.2,1186.7s26.426,7.3,28.9,20.217" transform="translate(-1.882 -1085)" fill="none" stroke="#d2d7c6" stroke-width="1" opacity="0.599"/>
        <path id="Path_1239" data-name="Path 1239" d="M16.9,1190s15.217,5.008,16.3,15.369,9.588,12.135,9.588,12.135.381,7.6,4.131,8.93,0,14.674,0,14.674l-4.131,2.117s-16.4,5.174-19.914-7.775-15.258-11.738-15.258-11.738" transform="translate(-0.076 -1085)" fill="none" stroke="#ccd5c3" stroke-width="1" opacity="0.605"/>
        <path id="Path_1242" data-name="Path 1242" d="M70.031,1263v-6.441s7.666-9.594,6.209-14.359,0-17.209,0-17.209,7.934-16.807,2.588-22.654A12.011,12.011,0,0,1,76.24,1190l2.588-4.68s20.6-2.292,22.015-5.632-1.11-9.122,5.286-9.886,16-2.747,17.078-8.518,17.087-17.245,22.492-12.209" transform="translate(-3.2 -1085)" fill="none" stroke="#dae3c9" stroke-width="1" opacity="0.599"/>
        <path id="Path_1243" data-name="Path 1243" d="M72.564,1158.429s18.31,5.844,22.364-8.847,10.443-11.055,10.443-11.055" transform="translate(-5.341 -1088)" fill="none" stroke="#ccd3c1" stroke-width="0.7" opacity="0.436"/>
        <path id="Path_1246" data-name="Path 1246" d="M89.843,1156.071s5.741,11.578,10.393,5.633" transform="translate(-2.64 -1089)" fill="none" stroke="#ccd3c1" stroke-width="0.7"/>
        <path id="Path_1240" data-name="Path 1240" d="M76.24,1195.6s-15-1.181-16.212,2.232-11.854-5.613-13.21-13.324,5.692-14.774,5.692-14.774-3.86-1.595-2.574-6.333-5.369-9.572-5.369-9.572" transform="translate(-1.516 -1085)" fill="none" stroke="#d0d6c4" stroke-width="1" opacity="0.599"/>
        <path id="Path_1241" data-name="Path 1241" d="M58.185,1198.578s-6.059,2.978-4.373,16.631,10.425,8.58,10.425,8.58" transform="translate(-1.605 -1085)" fill="none" stroke="#ccd3c1" stroke-width="1" opacity="0.605"/>
      </g>
      <path id="Path_848" data-name="Path 848" d="M.774,0s-1.741-.555,0,22.461,0,29.95,0,29.95,2.553,16.365,0,29.218" transform="matrix(0.914, -0.407, 0.407, 0.914, 158.453, 3106.915)" fill="none" stroke="#f1edd7" stroke-width="1"/>
    </g>
  </g>
</svg>
