<svg xmlns="http://www.w3.org/2000/svg" xmlns:xlink="http://www.w3.org/1999/xlink" width="66" height="66" viewBox="0 0 66 66">
  <defs>
    <filter id="Rectangle_476" x="0" y="0" width="66" height="66" filterUnits="userSpaceOnUse">
      <feOffset dy="3" input="SourceAlpha"/>
      <feGaussianBlur stdDeviation="3" result="blur"/>
      <feFlood/>
      <feComposite operator="in" in2="blur"/>
      <feComposite in="SourceGraphic"/>
    </filter>
  </defs>
  <g id="Group_598" data-name="Group 598" transform="translate(9.199 6)">
    <g transform="matrix(1, 0, 0, 1, -9.2, -6)" filter="url(#Rectangle_476)">
      <rect id="Rectangle_476-2" data-name="Rectangle 476" width="48" height="48" rx="8" transform="translate(9 6)" fill="#fff"/>
    </g>
    <path id="Icon_ionic-md-call" data-name="Icon ionic-md-call" d="M30,23.25a17.605,17.605,0,0,1-5.325-.825,1.4,1.4,0,0,0-1.5.375l-3.3,3.3a22.557,22.557,0,0,1-9.9-9.9l3.3-3.3a1.563,1.563,0,0,0,.375-1.5,16.313,16.313,0,0,1-.9-5.4,1.5,1.5,0,0,0-1.5-1.5H6A1.5,1.5,0,0,0,4.5,6,25.479,25.479,0,0,0,30,31.5,1.5,1.5,0,0,0,31.5,30V24.75A1.5,1.5,0,0,0,30,23.25Z" transform="translate(6.5 6.5)" fill="#284525"/>
  </g>
</svg>
