<svg xmlns="http://www.w3.org/2000/svg" xmlns:xlink="http://www.w3.org/1999/xlink" width="259.932" height="160.28" viewBox="0 0 259.932 160.28">
  <defs>
    <filter id="Subtraction_1" x="0" y="0" width="259.932" height="160.28" filterUnits="userSpaceOnUse">
      <feOffset dx="2" dy="3" input="SourceAlpha"/>
      <feGaussianBlur stdDeviation="1.5" result="blur"/>
      <feFlood/>
      <feComposite operator="in" in2="blur"/>
      <feComposite in="SourceGraphic"/>
    </filter>
    <filter id="Path_1532" x="2.408" y="5.276" width="50.989" height="61.837" filterUnits="userSpaceOnUse">
      <feOffset dy="3" input="SourceAlpha"/>
      <feGaussianBlur stdDeviation="1.5" result="blur-2"/>
      <feFlood/>
      <feComposite operator="in" in2="blur-2"/>
      <feComposite in="SourceGraphic"/>
    </filter>
  </defs>
  <g id="Group_603" data-name="Group 603" transform="translate(-1534.755 -3376.316)">
    <g id="Group_592" data-name="Group 592" transform="matrix(0.978, 0.208, -0.208, 0.978, 966.413, 67.255)">
      <g transform="matrix(0.98, -0.21, 0.21, 0.98, 1243.91, 3118.59)" filter="url(#Subtraction_1)">
        <path id="Subtraction_1-2" data-name="Subtraction 1" d="M219.923,102.869H47.589a12.305,12.305,0,0,1-9.4-4.353L2.923,56.921a12.323,12.323,0,0,1,.471-16.462L38.237,3.829A12.326,12.326,0,0,1,47.166,0H219.923a12.313,12.313,0,0,1,12.323,12.322V90.546a12.311,12.311,0,0,1-12.323,12.323ZM34.585,40.2a11.495,11.495,0,1,0,4.487.906A11.448,11.448,0,0,0,34.585,40.2Z" transform="matrix(0.98, 0.21, -0.21, 0.98, 25.07, 2.69)" fill="#284525" stroke="#fff" stroke-miterlimit="10" stroke-width="2"/>
      </g>
      <g id="Rectangle_473" data-name="Rectangle 473" transform="translate(1317.902 3126.7)" fill="none" stroke="#fff" stroke-width="1" stroke-dasharray="5">
        <rect width="175.725" height="83.023" rx="19" stroke="none"/>
        <rect x="0.5" y="0.5" width="174.725" height="82.023" rx="18.5" fill="none"/>
      </g>
      <text id="WE_ACCEPT_ONLINE_PAYMENT" data-name="WE ACCEPT
ONLINE PAYMENT" transform="translate(1405.5 3163.259)" fill="#fff" font-size="18" font-family="ArialMT, Arial" letter-spacing="0.03em"><tspan x="-55.167" y="0">WE ACCEPT</tspan><tspan font-family="Arial-BoldMT, Arial" font-weight="700"><tspan x="-82.519" y="21">ONLINE PAYMENT</tspan></tspan></text>
    </g>
    <g transform="matrix(1, 0, 0, 1, 1534.75, 3376.32)" filter="url(#Path_1532)">
      <path id="Path_1532-2" data-name="Path 1532" d="M-1425.181,11094.09s6.838,4.1,8.718,0-17.9-53.963-31.892-48.55-6.913,30.124,1.881,34.789" transform="translate(1464.25 -11037.32)" fill="none" stroke="#070f07" stroke-width="2"/>
    </g>
  </g>
</svg>
