<svg xmlns="http://www.w3.org/2000/svg" xmlns:xlink="http://www.w3.org/1999/xlink" width="66" height="66" viewBox="0 0 66 66">
  <defs>
    <filter id="Rectangle_480" x="0" y="0" width="66" height="66" filterUnits="userSpaceOnUse">
      <feOffset dy="3" input="SourceAlpha"/>
      <feGaussianBlur stdDeviation="3" result="blur"/>
      <feFlood/>
      <feComposite operator="in" in2="blur"/>
      <feComposite in="SourceGraphic"/>
    </filter>
  </defs>
  <g id="Group_601" data-name="Group 601" transform="translate(9.199 6)">
    <g transform="matrix(1, 0, 0, 1, -9.2, -6)" filter="url(#Rectangle_480)">
      <rect id="Rectangle_480-2" data-name="Rectangle 480" width="48" height="48" rx="8" transform="translate(9 6)" fill="#284525"/>
    </g>
    <path id="Icon_ionic-logo-vk" data-name="Icon ionic-logo-vk" d="M30.023,21.03c-.6-.562-1.1-.9-1.3-1.441a1.024,1.024,0,0,1-.07-.534c.028-.422.387-.97,2.784-4.141,1-1.322,2.3-2.918,2.3-4.113,0-.773-.316-.963-1.463-.963h-5.2c-.457,0-.766.626-.956,1.153a28.811,28.811,0,0,1-1.5,3.08A11.082,11.082,0,0,1,21.8,17.754a.645.645,0,0,1-.387.056.665.665,0,0,1-.436-.26c-.162-.2-.415-.541-.316-3.79.056-1.814.26-3.08-.12-3.853A1.333,1.333,0,0,0,20.2,9.52a7.689,7.689,0,0,0-3.375-.527,11.069,11.069,0,0,0-2.813.3,2.784,2.784,0,0,0-1.329.844c-.176.232.3.113.766.323a1.437,1.437,0,0,1,.788.654,8.161,8.161,0,0,1,.373,4.69,5.205,5.205,0,0,1-.464,1.793.634.634,0,0,1-.668.218c-1.132-.345-2.011-1.828-2.9-3.565-.921-1.814-1.392-3.087-1.645-3.607a1.3,1.3,0,0,0-1.294-.8H2.974a.693.693,0,0,0-.7.633c0,.773,1.308,3.023,2.1,4.641a35.067,35.067,0,0,0,5.794,8.452A10.817,10.817,0,0,0,17.529,27a16.811,16.811,0,0,0,2.341-.105,1.028,1.028,0,0,0,.4-.176c.5-.387.408-1.125.443-1.7a3.207,3.207,0,0,1,.492-1.828.977.977,0,0,1,1.308-.288,4.359,4.359,0,0,1,1.209,1.062,17.626,17.626,0,0,0,2.2,2.264,4.1,4.1,0,0,0,1.259.612A5.057,5.057,0,0,0,28.962,27c.682-.028,1.2-.021,2.039-.021a5.515,5.515,0,0,0,2.327-.246.929.929,0,0,0,.422-.795C33.75,25.1,32.892,23.709,30.023,21.03Z" transform="translate(5.722 6.007)" fill="#fff"/>
  </g>
</svg>
