<svg xmlns="http://www.w3.org/2000/svg" xmlns:xlink="http://www.w3.org/1999/xlink" width="66" height="66" viewBox="0 0 66 66">
  <defs>
    <filter id="Rectangle_483" x="0" y="0" width="66" height="66" filterUnits="userSpaceOnUse">
      <feOffset dy="3" input="SourceAlpha"/>
      <feGaussianBlur stdDeviation="3" result="blur"/>
      <feFlood/>
      <feComposite operator="in" in2="blur"/>
      <feComposite in="SourceGraphic"/>
    </filter>
  </defs>
  <g id="Group_596" data-name="Group 596" transform="translate(9.199 6)">
    <g transform="matrix(1, 0, 0, 1, -9.2, -6)" filter="url(#Rectangle_483)">
      <rect id="Rectangle_483-2" data-name="Rectangle 483" width="48" height="48" rx="8" transform="translate(9 6)" fill="#284525"/>
    </g>
    <path id="Icon_metro-pinterest" data-name="Icon metro-pinterest" d="M15.862,21.944c-.811,4.248-1.8,8.32-4.732,10.447-.9-6.42,1.328-11.24,2.366-16.357-1.769-2.977.213-8.965,3.941-7.488,4.589,1.814-3.973,11.062,1.774,12.219,6,1.2,8.451-10.411,4.729-14.189C18.564,1.118,8.29,6.447,9.555,14.26c.307,1.91,2.28,2.488.788,5.124-3.441-.762-4.468-3.477-4.336-7.1C6.22,6.366,11.327,2.221,16.451,1.646c6.48-.726,12.562,2.38,13.4,8.474C30.8,17,26.929,24.454,20,23.917c-1.879-.147-2.665-1.078-4.137-1.973Z" transform="translate(6.004 7.458)" fill="#fff"/>
  </g>
</svg>
