<svg xmlns="http://www.w3.org/2000/svg" xmlns:xlink="http://www.w3.org/1999/xlink" width="66" height="66" viewBox="0 0 66 66">
  <defs>
    <filter id="Rectangle_481" x="0" y="0" width="66" height="66" filterUnits="userSpaceOnUse">
      <feOffset dy="3" input="SourceAlpha"/>
      <feGaussianBlur stdDeviation="3" result="blur"/>
      <feFlood/>
      <feComposite operator="in" in2="blur"/>
      <feComposite in="SourceGraphic"/>
    </filter>
  </defs>
  <g id="Group_600" data-name="Group 600" transform="translate(9.199 6)">
    <g transform="matrix(1, 0, 0, 1, -9.2, -6)" filter="url(#Rectangle_481)">
      <rect id="Rectangle_481-2" data-name="Rectangle 481" width="48" height="48" rx="8" transform="translate(9 6)" fill="#284525"/>
    </g>
    <path id="Icon_awesome-tripadvisor" data-name="Icon awesome-tripadvisor" d="M11.7,19.724a1.685,1.685,0,1,1-1.685-1.685A1.685,1.685,0,0,1,11.7,19.724ZM30.33,18.04a1.684,1.684,0,1,0,1.684,1.684A1.684,1.684,0,0,0,30.33,18.04Zm6.285,9.808a10.136,10.136,0,0,1-14.23-1.727l-2.178,3.257-2.157-3.23A10.127,10.127,0,0,1,1.984,13.821,13.132,13.132,0,0,0,0,9.8l6.348,0A25.206,25.206,0,0,1,20.2,6,24.636,24.636,0,0,1,33.717,9.751l6.765.005a13.058,13.058,0,0,0-1.993,4.053A10.136,10.136,0,0,1,36.615,27.848ZM18.237,19.811A8.092,8.092,0,1,0,10.146,27.9a8.092,8.092,0,0,0,8.091-8.092v0Zm2.01-.735a10.1,10.1,0,0,1,9.782-9.353A23.846,23.846,0,0,0,20.2,7.768a25.053,25.053,0,0,0-9.855,1.916,10.141,10.141,0,0,1,9.9,9.392Zm17.7-2.023a8.092,8.092,0,0,0-15.184,5.6v0a8.092,8.092,0,0,0,15.184-5.6ZM15.02,19.724v.008a5.01,5.01,0,1,1,0-.008Zm-1.724,0v-.006a3.287,3.287,0,1,0,0,.006Zm22.038,0v0a5.007,5.007,0,1,1-5-5.01,5.007,5.007,0,0,1,5,5.01Zm-1.723,0a3.283,3.283,0,1,0-3.281,3.284,3.283,3.283,0,0,0,3.281-3.284h0Z" transform="translate(4 6.006)" fill="#fff"/>
  </g>
</svg>
