<svg xmlns="http://www.w3.org/2000/svg" xmlns:xlink="http://www.w3.org/1999/xlink" width="66" height="66" viewBox="0 0 66 66">
  <defs>
    <filter id="Rectangle_482" x="0" y="0" width="66" height="66" filterUnits="userSpaceOnUse">
      <feOffset dy="3" input="SourceAlpha"/>
      <feGaussianBlur stdDeviation="3" result="blur"/>
      <feFlood/>
      <feComposite operator="in" in2="blur"/>
      <feComposite in="SourceGraphic"/>
    </filter>
  </defs>
  <g id="Group_599" data-name="Group 599" transform="translate(9.199 6)">
    <g transform="matrix(1, 0, 0, 1, -9.2, -6)" filter="url(#Rectangle_482)">
      <rect id="Rectangle_482-2" data-name="Rectangle 482" width="48" height="48" rx="8" transform="translate(9 6)" fill="#284525"/>
    </g>
    <g id="Icon_feather-youtube" data-name="Icon feather-youtube" transform="translate(7 12)">
      <path id="Path_1530" data-name="Path 1530" d="M33.81,9.63a4.17,4.17,0,0,0-2.91-3C28.32,6,18,6,18,6S7.68,6,5.1,6.69a4.17,4.17,0,0,0-2.91,3,43.5,43.5,0,0,0-.69,7.935,43.5,43.5,0,0,0,.69,7.995A4.17,4.17,0,0,0,5.1,28.5c2.58.69,12.9.69,12.9.69s10.32,0,12.9-.69a4.17,4.17,0,0,0,2.91-3,43.5,43.5,0,0,0,.69-7.875,43.5,43.5,0,0,0-.69-8Z" transform="translate(-1.499 -6)" fill="none" stroke="#fff" stroke-linecap="round" stroke-linejoin="round" stroke-width="3"/>
      <path id="Path_1531" data-name="Path 1531" d="M14.625,22.53l8.625-4.905-8.625-4.9Z" transform="translate(-1.499 -6)" fill="none" stroke="#fff" stroke-linecap="round" stroke-linejoin="round" stroke-width="3"/>
    </g>
  </g>
</svg>
